<?xml version="1.0" standalone="no"?>
<!DOCTYPE svg PUBLIC "-//W3C//DTD SVG 20010904//EN"
 "http://www.w3.org/TR/2001/REC-SVG-20010904/DTD/svg10.dtd">
<svg version="1.0" xmlns="http://www.w3.org/2000/svg"
 width="1200.000000pt" height="630.000000pt" viewBox="0 0 1200.000000 630.000000"
 preserveAspectRatio="xMidYMid meet">
<metadata>
Created by potrace 1.16, written by Peter Selinger 2001-2019
</metadata>
<g transform="translate(0.000000,630.000000) scale(0.100000,-0.100000)"
fill="#000000" stroke="none">
<path d="M3859 6175 c-15 -8 -31 -22 -35 -32 -5 -10 -11 -524 -14 -1142 l-5
-1123 -181 -87 c-277 -132 -419 -200 -531 -253 -56 -26 -110 -59 -122 -74
l-21 -27 0 -1593 c0 -1101 3 -1601 11 -1621 13 -34 55 -80 91 -99 23 -12 169
-14 908 -14 l881 0 24 25 c33 32 33 84 1 122 l-24 28 -791 3 c-435 1 -791 5
-791 8 0 3 69 79 153 167 85 89 338 358 563 597 225 240 581 619 792 842 l382
407 63 -29 c34 -16 108 -51 165 -79 56 -28 104 -51 106 -51 2 0 89 -41 192
-91 234 -113 275 -129 324 -129 49 0 90 16 324 129 103 50 190 91 192 91 2 0
50 23 106 51 57 28 131 63 165 79 l63 29 297 -317 c387 -413 366 -392 412
-392 63 0 108 69 79 123 -7 14 -147 167 -310 341 -164 173 -298 319 -298 324
0 5 42 28 93 52 50 24 196 92 322 153 221 105 302 143 520 247 213 101 298
141 520 247 127 61 264 126 305 146 l75 35 3 -709 c1 -390 1 -1029 0 -1419
l-3 -710 -499 530 c-275 292 -508 535 -517 541 -57 30 -129 -11 -129 -75 0
-42 17 -63 229 -286 86 -91 292 -309 457 -485 166 -176 308 -326 317 -334 10
-7 17 -17 17 -22 0 -5 -791 -10 -1805 -11 l-1805 -3 -24 -25 c-38 -39 -38 -89
-1 -125 l24 -25 1896 0 c2067 0 1919 -4 1977 57 15 15 32 41 37 56 8 20 11
520 11 1621 l0 1593 -21 27 c-12 15 -66 48 -122 74 -112 53 -254 121 -531 253
l-181 87 -5 1123 c-3 618 -9 1132 -14 1142 -24 49 89 47 -2178 47 -1813 -1
-2117 -3 -2139 -15z m4151 -1640 l0 -1476 -62 -28 c-35 -16 -126 -59 -203 -96
-77 -37 -228 -109 -335 -160 -107 -51 -253 -121 -325 -155 -71 -34 -191 -90
-265 -125 -74 -34 -193 -91 -265 -125 -179 -85 -438 -203 -510 -232 l-60 -24
-70 32 c-38 17 -128 60 -200 94 -71 34 -166 79 -210 100 -44 21 -132 62 -195
92 -142 68 -480 229 -745 355 -110 53 -256 122 -325 155 -69 33 -153 73 -187
89 l-63 28 0 1476 0 1475 2010 0 2010 0 0 -1475z m-4200 -1125 c0 -143 -2
-260 -4 -260 -8 0 -531 252 -539 259 -5 5 42 33 104 62 62 30 181 86 264 126
82 40 156 73 163 73 9 0 12 -59 12 -260z m4603 164 c111 -53 231 -110 265
-126 35 -17 60 -34 55 -38 -8 -8 -531 -260 -539 -260 -2 0 -4 117 -4 260 0
177 3 260 11 260 6 0 101 -43 212 -96z m-5203 -341 c36 -17 166 -79 290 -138
223 -106 518 -247 740 -353 63 -30 151 -71 195 -92 44 -21 145 -69 225 -107
80 -38 182 -87 228 -108 45 -21 82 -42 82 -47 0 -8 -196 -218 -800 -858 -80
-85 -330 -351 -554 -590 -225 -239 -426 -453 -447 -475 l-39 -40 0 1423 c0
783 3 1421 8 1419 4 -2 36 -17 72 -34z"/>
<path d="M4650 5630 c-15 -15 -20 -33 -20 -69 0 -47 -1 -49 -52 -82 -67 -43
-98 -100 -98 -179 1 -107 48 -166 171 -216 98 -40 127 -61 138 -100 14 -49 -3
-90 -41 -103 -62 -22 -107 -12 -158 34 -43 39 -66 40 -100 6 -57 -56 -29 -121
74 -170 l66 -31 0 -43 c0 -50 19 -82 55 -91 53 -13 94 28 95 95 0 44 2 47 40
64 45 20 95 72 112 114 5 14 10 60 11 102 1 62 -4 83 -24 119 -31 56 -89 101
-177 134 -80 31 -112 57 -112 91 0 33 33 65 68 65 16 0 61 -9 101 -19 l72 -19
29 25 c59 49 22 120 -76 144 -43 11 -44 13 -44 51 0 40 -14 77 -34 90 -22 15
-76 8 -96 -12z"/>
<path d="M5219 5405 c-59 -32 -54 -128 7 -153 22 -9 326 -12 1252 -10 l1224 3
24 28 c31 36 31 78 0 114 l-24 28 -1229 2 c-1054 2 -1232 0 -1254 -12z"/>
<path d="M5109 4911 c-36 -37 -38 -79 -5 -118 l24 -28 1282 -3 1281 -2 30 29
c39 40 39 82 0 122 l-29 29 -1277 0 -1277 0 -29 -29z"/>
<path d="M4279 4431 c-20 -20 -29 -39 -29 -61 0 -22 9 -41 29 -61 l29 -29
1692 0 1692 0 29 29 c20 20 29 39 29 61 0 22 -9 41 -29 61 l-29 29 -1692 0
-1692 0 -29 -29z"/>
<path d="M7265 4188 c-34 -20 -44 -41 -45 -89 0 -45 -2 -48 -52 -80 -66 -43
-98 -101 -98 -176 0 -104 44 -161 166 -213 103 -44 140 -71 148 -110 9 -49
-15 -96 -54 -104 -62 -12 -86 -6 -140 34 -29 22 -59 40 -66 40 -7 0 -25 -11
-40 -24 -22 -18 -28 -32 -27 -62 1 -32 8 -45 41 -75 22 -19 59 -41 81 -49 39
-13 41 -15 41 -55 0 -58 30 -95 76 -95 50 0 74 29 74 88 0 47 1 50 40 67 119
53 165 213 99 341 -28 54 -96 102 -199 141 -68 25 -96 59 -83 99 15 45 49 51
154 30 l90 -18 25 23 c26 25 31 65 12 92 -7 10 -40 28 -73 42 l-60 24 -5 50
c-3 28 -12 57 -20 65 -22 21 -62 28 -85 14z"/>
<path d="M4304 3970 c-55 -22 -69 -91 -30 -137 l24 -28 1271 -3 c1396 -2 1315
-6 1341 58 10 24 10 36 0 60 -26 64 53 60 -1327 59 -692 0 -1268 -4 -1279 -9z"/>
<path d="M4279 3471 c-36 -37 -38 -79 -5 -118 l24 -28 1259 -3 c882 -2 1269 0
1295 8 70 20 86 95 31 146 l-26 24 -1274 0 -1275 0 -29 -29z"/>
</g>
</svg>
