
<svg width="244" height="244" viewBox="0 0 244 244" fill="none" xmlns="http://www.w3.org/2000/svg">
<rect x="0.5" y="0.5" width="243" height="243" rx="3.5" fill="white" stroke="#CBCBCB"/>
<path d="M121.168 118.341C134.403 118.341 145.864 113.594 155.228 104.228C164.593 94.8635 169.34 83.4057 169.34 70.1688C169.34 56.9364 164.593 45.4771 155.227 36.1098C145.861 26.747 134.402 22 121.168 22C107.931 22 96.4732 26.747 87.1089 36.1113C77.7446 45.4756 72.9961 56.9349 72.9961 70.1688C72.9961 83.4057 77.7446 94.865 87.1104 104.229C96.4762 113.592 107.936 118.341 121.168 118.341Z" fill="#E0E0E0"/>
<path d="M205.456 175.789C205.186 171.892 204.64 167.641 203.836 163.152C203.024 158.629 201.979 154.354 200.727 150.446C199.435 146.407 197.677 142.418 195.504 138.596C193.249 134.629 190.6 131.174 187.628 128.331C184.519 125.357 180.714 122.966 176.313 121.222C171.928 119.487 167.068 118.608 161.869 118.608C159.828 118.608 157.853 119.446 154.04 121.929C151.693 123.459 148.948 125.229 145.884 127.187C143.264 128.856 139.715 130.42 135.331 131.836C131.054 133.22 126.712 133.922 122.426 133.922C118.139 133.922 113.798 133.22 109.517 131.836C105.137 130.422 101.588 128.858 98.9714 127.188C95.9364 125.249 93.1899 123.479 90.808 121.927C86.9994 119.445 85.0234 118.607 82.9818 118.607C77.7816 118.607 72.9232 119.487 68.5394 121.224C64.1418 122.965 60.3348 125.356 57.2235 128.333C54.2526 131.177 51.6022 134.63 49.35 138.596C47.1787 142.418 45.4209 146.405 44.1269 150.447C42.8772 154.355 41.832 158.629 41.0203 163.152C40.2161 167.635 39.6699 171.887 39.3998 175.794C39.1343 179.621 39 183.592 39 187.604C39 198.044 42.3188 206.496 48.8632 212.729C55.3268 218.88 63.8794 222 74.2797 222H170.581C180.981 222 189.53 218.881 195.996 212.729C202.542 206.5 205.86 198.047 205.86 187.602C205.859 183.573 205.723 179.598 205.456 175.789Z" fill="#E0E0E0"/>
</svg>
