<svg width="36" height="36" viewBox="0 0 36 36" fill="none" xmlns="http://www.w3.org/2000/svg">
<circle cx="18" cy="18" r="18" fill="white"/>
<mask id="mask0" mask-type="alpha" maskUnits="userSpaceOnUse" x="0" y="0" width="36" height="36">
<circle cx="18" cy="18" r="18" fill="white"/>
</mask>
<g mask="url(#mask0)">
<path d="M17.5236 20.14C19.5486 20.14 21.3021 19.4137 22.7348 17.9808C24.1676 16.5481 24.8938 14.795 24.8938 12.7698C24.8938 10.7452 24.1676 8.99196 22.7346 7.55876C21.3016 6.12627 19.5484 5.39998 17.5236 5.39998C15.4983 5.39998 13.7453 6.12627 12.3126 7.559C10.8798 8.99173 10.1533 10.745 10.1533 12.7698C10.1533 14.795 10.8798 16.5483 12.3128 17.981C13.7458 19.4135 15.499 20.14 17.5236 20.14Z" fill="#C7C8CA"/>
<path d="M30.4198 28.9296C30.3785 28.3333 30.2949 27.6829 30.1719 26.9961C30.0477 26.3041 29.8878 25.65 29.6963 25.0521C29.4986 24.4341 29.2296 23.8239 28.8972 23.2391C28.5522 22.6321 28.1469 22.1035 27.6921 21.6686C27.2165 21.2136 26.6343 20.8478 25.961 20.5809C25.29 20.3155 24.5465 20.181 23.7511 20.181C23.4387 20.181 23.1366 20.3092 22.5532 20.689C22.1942 20.9232 21.7742 21.194 21.3054 21.4935C20.9045 21.7489 20.3615 21.9882 19.6908 22.2048C19.0364 22.4166 18.372 22.524 17.7162 22.524C17.0604 22.524 16.3962 22.4166 15.7412 22.2048C15.0711 21.9884 14.5281 21.7491 14.1277 21.4937C13.6634 21.197 13.2432 20.9262 12.8787 20.6888C12.296 20.3089 11.9937 20.1808 11.6813 20.1808C10.8857 20.1808 10.1424 20.3155 9.47166 20.5812C8.79883 20.8475 8.21635 21.2134 7.74033 21.6688C7.28579 22.104 6.88028 22.6323 6.53569 23.2391C6.20348 23.8239 5.93454 24.4339 5.73657 25.0523C5.54536 25.6502 5.38545 26.3041 5.26125 26.9961C5.13821 27.682 5.05464 28.3326 5.01331 28.9303C4.97269 29.5158 4.95215 30.1235 4.95215 30.7373C4.95215 32.3346 5.45992 33.6277 6.46122 34.5814C7.45015 35.5224 8.75868 35.9999 10.3499 35.9999H25.0839C26.6752 35.9999 27.9832 35.5227 28.9724 34.5814C29.9739 33.6284 30.4817 32.335 30.4817 30.737C30.4814 30.1205 30.4607 29.5123 30.4198 28.9296Z" fill="#C7C8CA"/>
</g>
</svg>
